<mxfile host="Electron" agent="Mozilla/5.0 (Windows NT 10.0; Win64; x64) AppleWebKit/537.36 (KHTML, like Gecko) draw.io/24.7.17 Chrome/128.0.6613.36 Electron/32.0.1 Safari/537.36" version="24.7.17">
  <diagram name="Page-1" id="L1jsmZbv9D_z2x3_NM3u">
    <mxGraphModel dx="1098" dy="814" grid="1" gridSize="10" guides="1" tooltips="1" connect="1" arrows="1" fold="1" page="1" pageScale="1" pageWidth="827" pageHeight="1169" math="0" shadow="0">
      <root>
        <mxCell id="0" />
        <mxCell id="1" parent="0" />
        <mxCell id="KsS81xRklQ1h1bohUy4Z-1" value="" style="rounded=0;whiteSpace=wrap;html=1;" parent="1" vertex="1">
          <mxGeometry x="40" y="40" width="760" height="770" as="geometry" />
        </mxCell>
        <mxCell id="KsS81xRklQ1h1bohUy4Z-2" value="" style="rounded=0;whiteSpace=wrap;html=1;" parent="1" vertex="1">
          <mxGeometry x="40" y="40" width="760" height="60" as="geometry" />
        </mxCell>
        <mxCell id="KsS81xRklQ1h1bohUy4Z-3" value="" style="whiteSpace=wrap;html=1;aspect=fixed;" parent="1" vertex="1">
          <mxGeometry x="100" y="340" width="70" height="70" as="geometry" />
        </mxCell>
        <mxCell id="KsS81xRklQ1h1bohUy4Z-6" value="" style="triangle;whiteSpace=wrap;html=1;" parent="1" vertex="1">
          <mxGeometry x="350" y="365" width="10" height="20" as="geometry" />
        </mxCell>
        <mxCell id="KsS81xRklQ1h1bohUy4Z-7" value="" style="rounded=0;whiteSpace=wrap;html=1;" parent="1" vertex="1">
          <mxGeometry x="60" y="130" width="310" height="190" as="geometry" />
        </mxCell>
        <mxCell id="KsS81xRklQ1h1bohUy4Z-8" value="" style="triangle;whiteSpace=wrap;html=1;rotation=-180;" parent="1" vertex="1">
          <mxGeometry x="80" y="365" width="10" height="20" as="geometry" />
        </mxCell>
        <mxCell id="KsS81xRklQ1h1bohUy4Z-11" value="" style="rounded=0;whiteSpace=wrap;html=1;" parent="1" vertex="1">
          <mxGeometry x="414" y="130" width="86" height="20" as="geometry" />
        </mxCell>
        <mxCell id="KsS81xRklQ1h1bohUy4Z-12" value="" style="rounded=0;whiteSpace=wrap;html=1;" parent="1" vertex="1">
          <mxGeometry x="500" y="130" width="86" height="20" as="geometry" />
        </mxCell>
        <mxCell id="KsS81xRklQ1h1bohUy4Z-13" value="" style="rounded=0;whiteSpace=wrap;html=1;" parent="1" vertex="1">
          <mxGeometry x="586" y="130" width="86" height="20" as="geometry" />
        </mxCell>
        <mxCell id="KsS81xRklQ1h1bohUy4Z-14" value="" style="rounded=0;whiteSpace=wrap;html=1;" parent="1" vertex="1">
          <mxGeometry x="414" y="150" width="366" height="260" as="geometry" />
        </mxCell>
        <mxCell id="KsS81xRklQ1h1bohUy4Z-15" value="" style="rounded=0;whiteSpace=wrap;html=1;" parent="1" vertex="1">
          <mxGeometry x="80" y="440" width="690" height="540" as="geometry" />
        </mxCell>
        <mxCell id="KsS81xRklQ1h1bohUy4Z-16" value="" style="rounded=0;whiteSpace=wrap;html=1;" parent="1" vertex="1">
          <mxGeometry x="130" y="670" width="590" height="200" as="geometry" />
        </mxCell>
        <mxCell id="KsS81xRklQ1h1bohUy4Z-24" value="" style="verticalLabelPosition=bottom;verticalAlign=top;html=1;shape=mxgraph.flowchart.on-page_reference;" parent="1" vertex="1">
          <mxGeometry x="384.5" y="950" width="20" height="20" as="geometry" />
        </mxCell>
        <mxCell id="KsS81xRklQ1h1bohUy4Z-25" value="" style="verticalLabelPosition=bottom;verticalAlign=top;html=1;shape=mxgraph.flowchart.on-page_reference;" parent="1" vertex="1">
          <mxGeometry x="415" y="950" width="20" height="20" as="geometry" />
        </mxCell>
        <mxCell id="KsS81xRklQ1h1bohUy4Z-26" value="" style="verticalLabelPosition=bottom;verticalAlign=top;html=1;shape=mxgraph.flowchart.on-page_reference;" parent="1" vertex="1">
          <mxGeometry x="447" y="950" width="20" height="20" as="geometry" />
        </mxCell>
        <mxCell id="ZDiaS0YV_OtTDS2O0K1m-39" value="&lt;h1 style=&quot;margin-top: 0px;&quot;&gt;Heading&lt;/h1&gt;&lt;p&gt;Lorem ipsum dolor sit amet, consectetur adipisicing elit, sed do eiusmod tempor incididunt ut labore et dolore magna aliqua.&lt;/p&gt;" style="text;html=1;whiteSpace=wrap;overflow=hidden;rounded=0;" vertex="1" parent="1">
          <mxGeometry x="420" y="160" width="330" height="130" as="geometry" />
        </mxCell>
        <mxCell id="ZDiaS0YV_OtTDS2O0K1m-40" value="&lt;h1 style=&quot;margin-top: 0px;&quot;&gt;Heading&lt;/h1&gt;&lt;p&gt;Lorem ipsum dolor sit amet, consectetur adipisicing elit, sed do eiusmod tempor incididunt ut labore et dolore magna aliqua.&lt;/p&gt;" style="text;html=1;whiteSpace=wrap;overflow=hidden;rounded=0;" vertex="1" parent="1">
          <mxGeometry x="420" y="270" width="270" height="130" as="geometry" />
        </mxCell>
        <mxCell id="ZDiaS0YV_OtTDS2O0K1m-41" value="Text" style="text;html=1;align=center;verticalAlign=middle;whiteSpace=wrap;rounded=0;" vertex="1" parent="1">
          <mxGeometry x="420" y="125" width="60" height="30" as="geometry" />
        </mxCell>
        <mxCell id="ZDiaS0YV_OtTDS2O0K1m-42" value="Text" style="text;html=1;align=center;verticalAlign=middle;whiteSpace=wrap;rounded=0;" vertex="1" parent="1">
          <mxGeometry x="513" y="125" width="60" height="30" as="geometry" />
        </mxCell>
        <mxCell id="ZDiaS0YV_OtTDS2O0K1m-43" value="Text" style="text;html=1;align=center;verticalAlign=middle;whiteSpace=wrap;rounded=0;" vertex="1" parent="1">
          <mxGeometry x="599" y="125" width="60" height="30" as="geometry" />
        </mxCell>
        <mxCell id="ZDiaS0YV_OtTDS2O0K1m-44" value="&lt;h1 style=&quot;margin-top: 0px;&quot;&gt;Heading&lt;/h1&gt;&lt;p&gt;Lorem ipsum dolor sit amet, consectetur adipisicing elit, sed do eiusmod tempor incididunt ut labore et dolore magna aliqua.&lt;span style=&quot;background-color: initial;&quot;&gt;Lorem ipsum dolor sit amet, consectetur adipisicing elit, sed do eiusmod tempor incididunt ut labore et dolore magna aliqua.&lt;/span&gt;&lt;br&gt;&lt;/p&gt;&lt;p&gt;&lt;span style=&quot;background-color: initial;&quot;&gt;&lt;br&gt;&lt;/span&gt;&lt;/p&gt;&lt;p&gt;Lorem ipsum dolor sit amet, consectetur adipisicing elit, sed do eiusmod tempor incididunt ut labore et dolore magna aliqua.&lt;span style=&quot;background-color: initial;&quot;&gt;Lorem ipsum dolor sit amet, consectetur adipisicing elit, sed do eiusmod tempor incididunt ut labore et dolore magna aliqua.&lt;/span&gt;&lt;span style=&quot;background-color: initial;&quot;&gt;&lt;br&gt;&lt;/span&gt;&lt;/p&gt;" style="text;html=1;whiteSpace=wrap;overflow=hidden;rounded=0;" vertex="1" parent="1">
          <mxGeometry x="130" y="450" width="590" height="190" as="geometry" />
        </mxCell>
        <mxCell id="ZDiaS0YV_OtTDS2O0K1m-45" value="Text" style="text;html=1;align=center;verticalAlign=middle;whiteSpace=wrap;rounded=0;" vertex="1" parent="1">
          <mxGeometry x="360" y="55" width="60" height="30" as="geometry" />
        </mxCell>
        <mxCell id="ZDiaS0YV_OtTDS2O0K1m-46" value="Text" style="text;html=1;align=center;verticalAlign=middle;whiteSpace=wrap;rounded=0;" vertex="1" parent="1">
          <mxGeometry x="453" y="55" width="60" height="30" as="geometry" />
        </mxCell>
        <mxCell id="ZDiaS0YV_OtTDS2O0K1m-47" value="Text" style="text;html=1;align=center;verticalAlign=middle;whiteSpace=wrap;rounded=0;" vertex="1" parent="1">
          <mxGeometry x="539" y="55" width="60" height="30" as="geometry" />
        </mxCell>
        <mxCell id="ZDiaS0YV_OtTDS2O0K1m-49" value="" style="rounded=1;whiteSpace=wrap;html=1;" vertex="1" parent="1">
          <mxGeometry x="610" y="55" width="80" height="30" as="geometry" />
        </mxCell>
        <mxCell id="ZDiaS0YV_OtTDS2O0K1m-50" value="" style="rounded=1;whiteSpace=wrap;html=1;" vertex="1" parent="1">
          <mxGeometry x="700" y="55" width="80" height="30" as="geometry" />
        </mxCell>
        <mxCell id="ZDiaS0YV_OtTDS2O0K1m-51" value="Text" style="text;html=1;align=center;verticalAlign=middle;whiteSpace=wrap;rounded=0;" vertex="1" parent="1">
          <mxGeometry x="620" y="55" width="60" height="30" as="geometry" />
        </mxCell>
        <mxCell id="ZDiaS0YV_OtTDS2O0K1m-52" value="Text" style="text;html=1;align=center;verticalAlign=middle;whiteSpace=wrap;rounded=0;" vertex="1" parent="1">
          <mxGeometry x="710" y="55" width="60" height="30" as="geometry" />
        </mxCell>
        <mxCell id="ZDiaS0YV_OtTDS2O0K1m-53" value="Title" style="text;strokeColor=none;fillColor=none;html=1;fontSize=24;fontStyle=1;verticalAlign=middle;align=center;" vertex="1" parent="1">
          <mxGeometry x="50" y="50" width="100" height="40" as="geometry" />
        </mxCell>
        <mxCell id="ZDiaS0YV_OtTDS2O0K1m-54" value="" style="endArrow=none;html=1;rounded=0;entryX=1;entryY=0;entryDx=0;entryDy=0;exitX=0;exitY=1;exitDx=0;exitDy=0;" edge="1" parent="1" source="KsS81xRklQ1h1bohUy4Z-16" target="KsS81xRklQ1h1bohUy4Z-16">
          <mxGeometry width="50" height="50" relative="1" as="geometry">
            <mxPoint x="-40" y="880" as="sourcePoint" />
            <mxPoint x="10" y="830" as="targetPoint" />
          </mxGeometry>
        </mxCell>
        <mxCell id="ZDiaS0YV_OtTDS2O0K1m-55" value="" style="endArrow=none;html=1;rounded=0;entryX=1;entryY=1;entryDx=0;entryDy=0;exitX=0;exitY=0;exitDx=0;exitDy=0;" edge="1" parent="1" source="KsS81xRklQ1h1bohUy4Z-16" target="KsS81xRklQ1h1bohUy4Z-16">
          <mxGeometry width="50" height="50" relative="1" as="geometry">
            <mxPoint x="140" y="880" as="sourcePoint" />
            <mxPoint x="730" y="680" as="targetPoint" />
          </mxGeometry>
        </mxCell>
        <mxCell id="ZDiaS0YV_OtTDS2O0K1m-56" value="" style="endArrow=none;html=1;rounded=0;entryX=1;entryY=0;entryDx=0;entryDy=0;exitX=0;exitY=1;exitDx=0;exitDy=0;" edge="1" parent="1" source="KsS81xRklQ1h1bohUy4Z-3" target="KsS81xRklQ1h1bohUy4Z-3">
          <mxGeometry width="50" height="50" relative="1" as="geometry">
            <mxPoint x="75" y="430" as="sourcePoint" />
            <mxPoint x="125" y="380" as="targetPoint" />
          </mxGeometry>
        </mxCell>
        <mxCell id="ZDiaS0YV_OtTDS2O0K1m-57" value="" style="endArrow=none;html=1;rounded=0;entryX=0;entryY=0;entryDx=0;entryDy=0;exitX=1;exitY=1;exitDx=0;exitDy=0;" edge="1" parent="1" source="KsS81xRklQ1h1bohUy4Z-3" target="KsS81xRklQ1h1bohUy4Z-3">
          <mxGeometry width="50" height="50" relative="1" as="geometry">
            <mxPoint x="113" y="412" as="sourcePoint" />
            <mxPoint x="181" y="361" as="targetPoint" />
          </mxGeometry>
        </mxCell>
        <mxCell id="ZDiaS0YV_OtTDS2O0K1m-59" value="" style="whiteSpace=wrap;html=1;aspect=fixed;" vertex="1" parent="1">
          <mxGeometry x="185" y="340" width="70" height="70" as="geometry" />
        </mxCell>
        <mxCell id="ZDiaS0YV_OtTDS2O0K1m-60" value="" style="endArrow=none;html=1;rounded=0;entryX=1;entryY=0;entryDx=0;entryDy=0;exitX=0;exitY=1;exitDx=0;exitDy=0;" edge="1" parent="1" source="ZDiaS0YV_OtTDS2O0K1m-59" target="ZDiaS0YV_OtTDS2O0K1m-59">
          <mxGeometry width="50" height="50" relative="1" as="geometry">
            <mxPoint x="160" y="430" as="sourcePoint" />
            <mxPoint x="210" y="380" as="targetPoint" />
          </mxGeometry>
        </mxCell>
        <mxCell id="ZDiaS0YV_OtTDS2O0K1m-61" value="" style="endArrow=none;html=1;rounded=0;entryX=0;entryY=0;entryDx=0;entryDy=0;exitX=1;exitY=1;exitDx=0;exitDy=0;" edge="1" parent="1" source="ZDiaS0YV_OtTDS2O0K1m-59" target="ZDiaS0YV_OtTDS2O0K1m-59">
          <mxGeometry width="50" height="50" relative="1" as="geometry">
            <mxPoint x="198" y="412" as="sourcePoint" />
            <mxPoint x="266" y="361" as="targetPoint" />
          </mxGeometry>
        </mxCell>
        <mxCell id="ZDiaS0YV_OtTDS2O0K1m-62" value="" style="whiteSpace=wrap;html=1;aspect=fixed;" vertex="1" parent="1">
          <mxGeometry x="270" y="340" width="70" height="70" as="geometry" />
        </mxCell>
        <mxCell id="ZDiaS0YV_OtTDS2O0K1m-63" value="" style="endArrow=none;html=1;rounded=0;entryX=1;entryY=0;entryDx=0;entryDy=0;exitX=0;exitY=1;exitDx=0;exitDy=0;" edge="1" parent="1" source="ZDiaS0YV_OtTDS2O0K1m-62" target="ZDiaS0YV_OtTDS2O0K1m-62">
          <mxGeometry width="50" height="50" relative="1" as="geometry">
            <mxPoint x="245" y="430" as="sourcePoint" />
            <mxPoint x="295" y="380" as="targetPoint" />
          </mxGeometry>
        </mxCell>
        <mxCell id="ZDiaS0YV_OtTDS2O0K1m-64" value="" style="endArrow=none;html=1;rounded=0;entryX=0;entryY=0;entryDx=0;entryDy=0;exitX=1;exitY=1;exitDx=0;exitDy=0;" edge="1" parent="1" source="ZDiaS0YV_OtTDS2O0K1m-62" target="ZDiaS0YV_OtTDS2O0K1m-62">
          <mxGeometry width="50" height="50" relative="1" as="geometry">
            <mxPoint x="283" y="412" as="sourcePoint" />
            <mxPoint x="351" y="361" as="targetPoint" />
          </mxGeometry>
        </mxCell>
        <mxCell id="ZDiaS0YV_OtTDS2O0K1m-65" value="" style="endArrow=none;html=1;rounded=0;exitX=0;exitY=1;exitDx=0;exitDy=0;entryX=1;entryY=0;entryDx=0;entryDy=0;" edge="1" parent="1" source="KsS81xRklQ1h1bohUy4Z-7" target="KsS81xRklQ1h1bohUy4Z-7">
          <mxGeometry width="50" height="50" relative="1" as="geometry">
            <mxPoint x="100" y="270" as="sourcePoint" />
            <mxPoint x="150" y="220" as="targetPoint" />
          </mxGeometry>
        </mxCell>
        <mxCell id="ZDiaS0YV_OtTDS2O0K1m-66" value="" style="endArrow=none;html=1;rounded=0;exitX=0;exitY=0;exitDx=0;exitDy=0;entryX=1;entryY=1;entryDx=0;entryDy=0;" edge="1" parent="1" source="KsS81xRklQ1h1bohUy4Z-7" target="KsS81xRklQ1h1bohUy4Z-7">
          <mxGeometry width="50" height="50" relative="1" as="geometry">
            <mxPoint x="70" y="330" as="sourcePoint" />
            <mxPoint x="380" y="140" as="targetPoint" />
          </mxGeometry>
        </mxCell>
      </root>
    </mxGraphModel>
  </diagram>
</mxfile>
